Coordinates
version=1
nRows=22
nColumns=24
inDegrees=yes

Units are S.I. units (second, meters, Newtons, ...)
Angles are in degrees.

endheader
time	pelvis_tilt	pelvis_list	pelvis_rotation	pelvis_tx	pelvis_ty	pelvis_tz	hip_flexion_r	hip_adduction_r	hip_rotation_r	knee_angle_r	ankle_angle_r	subtalar_angle_r	mtp_angle_r	hip_flexion_l	hip_adduction_l	hip_rotation_l	knee_angle_l	ankle_angle_l	subtalar_angle_l	mtp_angle_l	lumbar_extension	lumbar_bending	lumbar_rotation
      4.96000000	      3.86319896	      0.90715800	     -8.64133196	      0.62142695	      0.81818477	     -0.13349059	     15.30931919	     -0.36014255	     -1.92599396	    -64.78551726	      9.71186613	     -2.69737134	      0.00000000	     -1.78899969	      7.05665923	      4.41191210	    -12.06105829	     14.01670191	    -14.51583166	      0.00000000	    -25.99790354	     -3.97593892	      3.23245878
      4.97000000	      3.65205552	      0.49479993	     -8.46066859	      0.63268363	      0.81900029	     -0.13365824	     17.06551595	      0.47102175	     -1.76541509	    -63.44968761	     10.56923910	     -2.84363019	      0.00000000	     -3.14121291	      6.65450993	      4.39941079	    -10.81007568	     13.94623278	    -14.38900266	      0.00000000	    -25.98868393	     -3.32677388	      3.03041011
      4.98000000	      3.63757079	      0.09494188	     -8.22591307	      0.64398141	      0.81976192	     -0.13382579	     18.44989838	      1.24451133	     -1.62165869	    -61.67622045	     11.06439542	     -3.25308141	      0.00000000	     -4.72219576	      6.28333998	      4.59178698	     -9.53584028	     13.82204018	    -14.34077295	      0.00000000	    -26.22251410	     -2.71536102	      2.74079924
      4.99000000	      3.56912838	     -0.18934018	     -7.97789708	      0.65523650	      0.82012677	     -0.13399009	     19.77853393	      1.89048993	     -1.40165605	    -59.55583379	     11.39143309	     -3.66519231	      0.00000000	     -6.16238046	      6.01263207	      4.61360223	     -8.36722116	     13.72883007	    -14.14755927	      0.00000000	    -26.39279051	     -2.21923685	      2.40040882
      5.00000000	      3.41941759	     -0.37485215	     -7.71059387	      0.66651652	      0.82008793	     -0.13415778	     21.05387149	      2.40700644	     -1.15558022	    -57.06163659	     11.53315724	     -4.10139007	      0.00000000	     -7.46062275	      5.82509983	      4.55272529	     -7.27291621	     13.66257551	    -13.87208110	      0.00000000	    -26.44704050	     -1.82199992	      2.04916851
      5.01000000	      3.39754171	     -0.50078329	     -7.38673997	      0.67780036	      0.81989972	     -0.13432557	     22.01230054	      2.79506810	     -0.94370349	    -54.13634483	     11.42364450	     -4.72718026	      0.00000000	     -8.86776839	      5.69554581	      4.53206741	     -6.22617521	     13.63243327	    -13.48759089	      0.00000000	    -26.67070089	     -1.49763099	      1.57935821
      5.02000000	      3.56365262	     -0.57009764	     -7.01604353	      0.68911085	      0.81961322	     -0.13452279	     22.56582719	      3.04216391	     -0.72661742	    -50.78504117	     11.30399006	     -5.19903810	      0.00000000	    -10.45346800	      5.62640564	      4.54061509	     -5.22676249	     13.67176965	    -12.94908939	      0.00000000	    -27.13824574	     -1.22985673	      1.00047036
      5.03000000	      3.57136198	     -0.54241868	     -6.60406417	      0.70053982	      0.81889987	     -0.13473923	     23.09797798	      3.12319995	     -0.60942781	    -47.02658124	     11.02169700	     -5.48897799	      0.00000000	    -11.83591582	      5.62173260	      4.49707013	     -4.27616384	     13.64877487	    -12.43240588	      0.00000000	    -27.37098333	     -1.05848850	      0.40631509
      5.04000000	      3.75677192	     -0.45351997	     -6.12460238	      0.71205686	      0.81808625	     -0.13501207	     23.20939629	      3.04221005	     -0.55792578	    -42.84767237	     10.80309685	     -5.40688192	      0.00000000	    -13.39179732	      5.66737620	      4.51381752	     -3.37367802	     13.68670312	    -11.78649683	      0.00000000	    -27.81664496	     -0.94605609	     -0.32457841
      5.05000000	      3.93243121	     -0.27124451	     -5.62739045	      0.72371774	      0.81697404	     -0.13531974	     23.12063309	      2.80274027	     -0.57741533	    -38.29973409	     10.57448178	     -4.88229949	      0.00000000	    -14.91664462	      5.78633363	      4.55706643	     -2.52295428	     13.70627269	    -11.11827241	      0.00000000	    -28.21400300	     -0.91827516	     -1.08767525
      5.06000000	      4.14563980	     -0.00339129	     -5.11174317	      0.73556820	      0.81559227	     -0.13560379	     22.78444528	      2.42726612	     -0.68588798	    -33.43223680	     10.36559961	     -3.88308445	      0.00000000	    -16.46961398	      5.96435374	      4.65765904	     -1.72517131	     13.74286278	    -10.42040777	      0.00000000	    -28.61509997	     -0.98756929	     -1.87645079
      5.07000000	      4.43025067	      0.28446793	     -4.58877989	      0.74770005	      0.81400278	     -0.13583442	     22.15678389	      2.01097334	     -0.86421482	    -28.28680623	     10.08568699	     -2.49102174	      0.00000000	    -18.09000161	      6.13451609	      4.79918121	     -1.00505968	     13.81226485	     -9.70693353	      0.00000000	    -29.03864195	     -1.08126456	     -2.65232449
      5.08000000	      4.63331980	      0.74412159	     -4.02690622	      0.75997378	      0.81202010	     -0.13612100	     21.53458522	      1.37872846	     -1.21896799	    -23.13716182	      9.87191077	     -0.38919827	      0.00000000	    -19.56501026	      6.43090666	      5.08045749	     -0.41178956	     13.85656832	     -8.98799345	      0.00000000	    -29.33063954	     -1.33857584	     -3.55194407
      5.09000000	      4.91347757	      1.20426118	     -3.43527354	      0.77255928	      0.80986314	     -0.13636071	     20.70559906	      0.75352327	     -1.60624823	    -18.01172295	      9.59030224	      2.02585161	      0.00000000	    -21.09319424	      6.68230102	      5.44293950	      0.05012711	     13.96495779	     -8.27076460	      0.00000000	    -29.65055249	     -1.58902862	     -4.43945307
      5.10000000	      5.20086993	      1.67489768	     -2.85255889	      0.78543278	      0.80748294	     -0.13651162	     19.81927526	      0.14651116	     -1.97260827	    -13.12954024	      9.25151650	      4.64682831	      0.00000000	    -22.59279132	      6.90241192	      5.87304919	      0.37715410	     14.11435804	     -7.56182370	      0.00000000	    -29.91774887	     -1.86243371	     -5.27917273
      5.11000000	      5.46742845	      2.08393934	     -2.31649082	      0.79861115	      0.80489477	     -0.13655856	     18.95512795	     -0.35922077	     -2.29496067	     -8.69968908	      8.89034871	      7.33319778	      0.00000000	    -24.04215365	      7.03091704	      6.34882795	      0.58145573	     14.33704498	     -6.84480328	      0.00000000	    -30.09431994	     -2.07612926	     -6.03534810
      5.12000000	      5.67952833	      2.50209330	     -1.82165677	      0.81192694	      0.80216340	     -0.13652331	     18.22396646	     -0.83652793	     -2.44947162	     -4.92520511	      8.58731143	      9.75492459	      0.00000000	    -25.33853941	      7.15565768	      6.79897011	      0.58051975	     14.56730323	     -6.13581518	      0.00000000	    -30.18175774	     -2.32052411	     -6.70774117
      5.13000000	      5.84430384	      2.84269743	     -1.38661919	      0.82538459	      0.79941779	     -0.13640127	     17.66824388	     -1.19978664	     -2.45643290	     -1.97972366	      8.40220917	     11.71970771	      0.00000000	    -26.49148980	      7.20860077	      7.14665934	      0.38596659	     14.78514924	     -5.41587489	      0.00000000	    -30.19535489	     -2.50492908	     -7.22628777
      5.14000000	      5.95888523	      3.07798236	     -1.09470274	      0.83882926	      0.79672507	     -0.13614314	     17.37220513	     -1.40651508	     -2.22609767	     -0.03343372	      8.31462681	     13.08929610	      0.00000000	    -27.49206043	      7.20468215	      7.42770512	      0.01551935	     14.98593888	     -4.73852883	      0.00000000	    -30.17047446	     -2.61900401	     -7.62072943
      5.15000000	      6.12563615	      2.98582927	     -0.82234031	      0.85262255	      0.79432462	     -0.13589038	     17.16994700	     -1.25237278	     -2.22179652	      0.90423907	      8.40429457	     13.97816946	      0.00000000	    -28.48892429	      6.89081172	      7.38736197	     -0.48786326	     15.26158237	     -3.82081229	      0.00000000	    -30.13922159	     -2.36076295	     -7.73346973
      5.16000000	      6.20544496	      2.76785608	     -0.74758821	      0.86645741	      0.79202753	     -0.13540659	     17.30796202	     -0.89152753	     -1.94456740	      0.75783077	      8.51791303	     14.09641315	      0.00000000	    -29.28710726	      6.55355671	      7.11399661	     -1.15784137	     15.41313576	     -2.95463145	      0.00000000	    -30.01624618	     -2.04345251	     -7.58729829
      5.17000000	      6.34663103	      2.47524440	     -0.74354695	      0.88034663	      0.79008371	     -0.13486303	     17.53395883	     -0.42992250	     -1.38017629	     -0.26760640	      8.44149945	     13.38875689	      0.00000000	    -29.99757142	      6.19850479	      6.49858112	     -2.08251643	     15.48347270	     -1.85019888	      0.00000000	    -29.97248358	     -1.67846203	     -7.42617593
